<svg width="102" height="114" viewBox="0 0 102 114" fill="none" xmlns="http://www.w3.org/2000/svg">
<path d="M29.6882 105.947C28.6075 105.9 27.5249 105.96 26.4558 106.125C22.4177 107.061 18.4078 108.223 14.379 109.216C11.8025 109.853 9.19793 110.406 6.59331 110.922C5.93447 111.08 5.2505 111.104 4.58213 110.992C3.91377 110.881 3.27469 110.636 2.70295 110.272C2.13121 109.909 1.63851 109.434 1.25418 108.876C0.869862 108.318 0.601782 107.688 0.465912 107.024C0.10946 105.705 0.279623 104.299 0.940458 103.103C1.60129 101.908 2.70105 101.015 4.00744 100.615C6.76196 99.7816 9.56332 99.0883 12.3459 98.3294L38.7669 91.0965C39.166 90.9967 39.5574 90.8684 39.938 90.7123C40.1816 90.5999 40.5564 90.3376 40.5376 90.1877C40.5079 90.0315 40.4469 89.883 40.3584 89.751C40.2698 89.6189 40.1555 89.5062 40.0223 89.4194C39.4151 89.1385 38.789 88.9006 38.1485 88.7073C31.3371 86.4213 24.5071 84.1633 17.7051 81.8491C16.9955 81.6261 16.3395 81.259 15.7783 80.7708C15.217 80.2826 14.7626 79.6838 14.4433 79.0119C14.1241 78.3401 13.947 77.6095 13.923 76.8661C13.899 76.1226 14.0288 75.3822 14.3041 74.6911C15.2878 71.9554 18.0517 70.8217 21.3028 71.8804C28.0017 74.0447 34.7007 76.1996 41.3808 78.4388C45.7187 79.8723 50.0566 81.3151 54.3477 82.8891C55.6447 83.436 57.073 83.5925 58.4576 83.3395C59.8422 83.0866 61.123 82.4351 62.1428 81.465C65.1034 79.0009 68.2514 76.7805 71.4088 74.5319C72.0432 74.0765 72.7783 73.7813 73.5514 73.6713C74.3245 73.5613 75.1127 73.6399 75.8489 73.9003C76.585 74.1608 77.2473 74.5953 77.7793 75.1669C78.3113 75.7386 78.6972 76.4304 78.9041 77.1833C79.1665 78.0265 79.2976 78.926 79.5225 79.9378C79.9883 79.9011 80.4514 79.8354 80.9091 79.7411C85.3595 78.5793 89.8098 77.3894 94.2601 76.2277C96.846 75.5437 98.9447 76.3026 100.266 78.2982C100.913 79.2882 101.225 80.46 101.156 81.6408C101.087 82.8216 100.64 83.949 99.8816 84.8566C99.1751 85.6162 98.2985 86.1974 97.3238 86.5524C94.588 87.5643 91.7586 88.3326 89.0321 89.3632C87.8515 89.8195 86.7581 90.4755 85.7998 91.3026C84.7317 92.2395 84.9285 92.7735 86.2589 93.2326C90.1564 94.563 94.0634 95.8653 97.9515 97.2051C99.3021 97.603 100.446 98.5079 101.145 99.7303C101.843 100.953 102.042 102.398 101.699 103.764C100.978 107.005 98.1389 108.495 94.6161 107.399C90.8685 106.237 87.2052 105.01 83.5044 103.801C77.1708 101.721 70.8186 99.6879 64.5225 97.5237C63.7185 97.2178 62.8563 97.0953 61.9989 97.165C61.1414 97.2347 60.3104 97.4948 59.5663 97.9265C57.3926 99.1633 55.2846 100.541 53.2515 101.983C48.9417 105.038 44.7256 108.223 40.3971 111.249C39.1147 112.092 37.7208 112.751 36.2559 113.208C35.5082 113.43 34.7195 113.48 33.9498 113.353C33.18 113.225 32.4493 112.925 31.8129 112.473C31.1765 112.022 30.6511 111.432 30.2765 110.747C29.9019 110.063 29.6879 109.302 29.6507 108.523C29.6507 107.652 29.6882 106.94 29.6882 105.947Z" fill="#F71B1B"/>
<path d="M45.3815 0.131729C44.7162 2.46464 43.8824 4.7507 43.4327 7.11172C41.9336 15.1504 44.0885 22.3272 49.0541 28.6607C52.1085 32.5957 55.3596 36.3808 58.3764 40.344C60.1189 42.6446 61.7029 45.0612 63.1172 47.5769C64.1304 49.3379 64.7497 51.2977 64.9325 53.3211C65.1153 55.3446 64.8571 57.3836 64.1759 59.2977C63.7641 61.0416 63.203 62.7468 62.4988 64.3945C60.625 67.8985 58.4607 71.262 56.4089 74.7005L56.0435 74.5975L55.3689 71.9554C53.4951 64.1603 51.031 56.5338 46.2247 50.0035C43.6013 46.4714 40.4158 43.3515 37.4177 40.0816C35.2567 37.8873 33.4347 35.3833 32.0117 32.6519C29.5758 27.4989 30.5783 22.5895 33.0985 17.8019C36.1154 12.068 40.1254 7.00866 43.9948 1.87438L45.3815 0.131729Z" fill="#F71B1B"/>
<path d="M53.6263 19.2822C57.758 23.5545 62.7986 26.3652 67.8017 29.354C72.8048 32.3427 77.3301 35.9124 80.6374 40.7468C84.2164 46.031 85.322 51.6619 83.4481 57.9298C81.9303 62.8673 79.1102 66.7274 74.6693 69.0978C71.1933 70.9716 67.3614 72.124 63.6793 73.5856C63.0268 73.8423 62.3281 73.9604 61.6275 73.9322C61.8523 73.6231 62.0772 73.3045 62.3114 72.9953C65.525 68.9104 68.4482 64.6943 70.2096 59.7568C72.7955 52.5988 71.896 45.853 68.2046 39.3415C65.6468 34.8162 62.2833 30.9093 58.976 26.918C57.2053 24.7912 55.6781 22.4771 54.0572 20.2378C53.8835 19.9337 53.7392 19.6137 53.6263 19.2822Z" fill="#F71B1B"/>
<path d="M26.6245 41.1216C29.4352 43.7731 32.4052 46.3402 35.1504 49.0947C37.4378 51.3767 39.5812 53.7986 41.5682 56.3464C43.615 58.8994 45.1009 61.8551 45.929 65.0207C46.7571 68.1864 46.909 71.491 46.3746 74.7192C46.3746 74.9347 46.2715 75.1409 46.1872 75.4781C45.5314 75.3845 44.913 75.3189 44.3134 75.1877C39.5137 74.2678 35.1423 71.8148 31.8561 68.1975C28.57 64.5803 26.5468 59.9941 26.0904 55.1284C25.5835 50.5053 25.7635 45.8326 26.6245 41.2621C26.6711 41.0853 26.7404 40.9153 26.8306 40.7562L26.6245 41.1216Z" fill="#F71B1B"/>
</svg>
